<svg width="48" height="48" viewBox="0 0 48 48" fill="none" xmlns="http://www.w3.org/2000/svg">
  <!-- Fondo circular -->
  <circle cx="24" cy="24" r="24" fill="#E6F7FF"/>

  <!-- Montañas (representando Monterrey) -->
  <path d="M4 36L12 24L16 28L24 16L32 24L36 20L44 32V36H4Z" fill="#4285F4"/>
  <path d="M4 36L12 24L16 28L24 16L32 24L36 20L44 32V36H4Z" fill="url(#paint0_linear)"/>

  <!-- Onda de aire -->
  <path d="M10 28C14 24 18 28 22 24C26 20 30 24 34 20C38 16 42 20 46 16" stroke="#4ADE80" stroke-width="2" stroke-linecap="round"/>
  <path d="M10 32C14 28 18 32 22 28C26 24 30 28 34 24C38 20 42 24 46 20" stroke="#4ADE80" stroke-width="2" stroke-linecap="round"/>

  <!-- Degradado para las montañas -->
  <defs>
    <linearGradient id="paint0_linear" x1="24" y1="16" x2="24" y2="36" gradientUnits="userSpaceOnUse">
      <stop stop-color="#4285F4"/>
      <stop offset="1" stop-color="#3B5998"/>
    </linearGradient>
  </defs>
</svg>
